# xmcd
#
# Track frame offsets: 
#        150
#        15919
#        42682
#        61633
#        80605
#        95548
#        110486
#        123171
#        141475
#        160561
#        182645
#        201773
#
# Disc length: 2925 seconds
#
# Revision: 0
# Processed by: cddbd v1.5.2PL0 Copyright (c) Steve Scherf et al.
# Submitted via: ExactAudioCopy v0.99pb5
#
DISCID=980b6b0c
DTITLE=The GrassMasters - Eagles Grass
DYEAR=2005
DGENRE=Bluegrass
TTITLE0=Take It Easy
TTITLE1=Hotel California
TTITLE2=New Kid In Town
TTITLE3=Already Gone
TTITLE4=Desperado
TTITLE5=Get Over It
TTITLE6=Tequila Sunrise
TTITLE7=I Can't Tell You Why
TTITLE8=Lyin' Eyes
TTITLE9=Life In The Fast Lane
TTITLE10=Peaceful Easy Feelin'
TTITLE11=Midnight Flyer
EXTD=
EXTT0=
EXTT1=
EXTT2=
EXTT3=
EXTT4=
EXTT5=
EXTT6=
EXTT7=
EXTT8=
EXTT9=
EXTT10=
EXTT11=
PLAYORDER=
